solid OpenSCAD_Model
  facet normal -1 0 0
    outer loop
      vertex -43.4502 12.565 0
      vertex -43.4502 6 18.0764
      vertex -43.4502 12.565 25.7764
    endloop
  endfacet
  facet normal -1 0 0
    outer loop
      vertex -43.4502 12.565 0
      vertex -43.4502 -6 18.0764
      vertex -43.4502 6 18.0764
    endloop
  endfacet
  facet normal -1 0 0
    outer loop
      vertex -43.4502 -12.565 0
      vertex -43.4502 -6 18.0764
      vertex -43.4502 12.565 0
    endloop
  endfacet
  facet normal -1 0 0
    outer loop
      vertex -43.4502 -12.565 25.7764
      vertex -43.4502 -6 18.0764
      vertex -43.4502 -12.565 0
    endloop
  endfacet
  facet normal -1 0 0
    outer loop
      vertex -43.4502 -6 18.0764
      vertex -43.4502 -12.565 25.7764
      vertex -43.4502 -6 25.7764
    endloop
  endfacet
  facet normal -1 -0 0
    outer loop
      vertex -43.4502 12.565 25.7764
      vertex -43.4502 6 18.0764
      vertex -43.4502 6 25.7764
    endloop
  endfacet
  facet normal -0 0 1
    outer loop
      vertex 38.4502 -6 25.7764
      vertex 43.4502 -12.565 25.7764
      vertex 43.4502 -6 25.7764
    endloop
  endfacet
  facet normal 0 0 1
    outer loop
      vertex 43.4502 -12.565 25.7764
      vertex 38.4502 -6 25.7764
      vertex 38.4502 -12.565 25.7764
    endloop
  endfacet
  facet normal -0 0 1
    outer loop
      vertex 38.4502 12.565 25.7764
      vertex 43.4502 6 25.7764
      vertex 43.4502 12.565 25.7764
    endloop
  endfacet
  facet normal 0 0 1
    outer loop
      vertex 43.4502 6 25.7764
      vertex 38.4502 12.565 25.7764
      vertex 38.4502 6 25.7764
    endloop
  endfacet
  facet normal 0 0 1
    outer loop
      vertex -33.72 -6 25.7764
      vertex -33.02 -3.75 25.7764
      vertex -33.72 -3.75 25.7764
    endloop
  endfacet
  facet normal 0 0 1
    outer loop
      vertex -33.02 -3.75 25.7764
      vertex -33.72 -6 25.7764
      vertex -33.02 -8.5 25.7764
    endloop
  endfacet
  facet normal 0 0 1
    outer loop
      vertex -33.72 -6 25.7764
      vertex -38.4502 -8.5 25.7764
      vertex -33.02 -8.5 25.7764
    endloop
  endfacet
  facet normal -0 0 1
    outer loop
      vertex -43.4502 -6 25.7764
      vertex -38.4502 -8.5 25.7764
      vertex -33.72 -6 25.7764
    endloop
  endfacet
  facet normal 0 0 1
    outer loop
      vertex -43.4502 -12.565 25.7764
      vertex -38.4502 -8.5 25.7764
      vertex -43.4502 -6 25.7764
    endloop
  endfacet
  facet normal 0 0 1
    outer loop
      vertex -38.4502 -8.5 25.7764
      vertex -43.4502 -12.565 25.7764
      vertex -38.4502 -12.565 25.7764
    endloop
  endfacet
  facet normal -0 0 1
    outer loop
      vertex -43.4502 12.565 25.7764
      vertex -38.4502 8.5 25.7764
      vertex -38.4502 12.565 25.7764
    endloop
  endfacet
  facet normal 0 0 1
    outer loop
      vertex -43.4502 6 25.7764
      vertex -38.4502 8.5 25.7764
      vertex -43.4502 12.565 25.7764
    endloop
  endfacet
  facet normal 0 0 1
    outer loop
      vertex -38.4502 8.5 25.7764
      vertex -43.4502 6 25.7764
      vertex -38.4502 6 25.7764
    endloop
  endfacet
  facet normal 0 0 1
    outer loop
      vertex -33.02 8.5 25.7764
      vertex -33.72 6 25.7764
      vertex -33.02 3.75 25.7764
    endloop
  endfacet
  facet normal -0 0 1
    outer loop
      vertex -38.4502 8.5 25.7764
      vertex -33.72 6 25.7764
      vertex -33.02 8.5 25.7764
    endloop
  endfacet
  facet normal 0 0 1
    outer loop
      vertex -33.72 6 25.7764
      vertex -38.4502 8.5 25.7764
      vertex -38.4502 6 25.7764
    endloop
  endfacet
  facet normal 0 0 1
    outer loop
      vertex -33.02 3.75 25.7764
      vertex -33.72 6 25.7764
      vertex -33.72 3.75 25.7764
    endloop
  endfacet
  facet normal 1 0 0
    outer loop
      vertex 43.4502 -6 25.7764
      vertex 43.4502 -12.565 25.7764
      vertex 43.4502 -6 16.0462
    endloop
  endfacet
  facet normal 1 0 0
    outer loop
      vertex 43.4502 6 16.0462
      vertex 43.4502 12.565 25.7764
      vertex 43.4502 6 25.7764
    endloop
  endfacet
  facet normal 1 0 0
    outer loop
      vertex 43.4502 12.565 25.7764
      vertex 43.4502 6 16.0462
      vertex 43.4502 12.565 0
    endloop
  endfacet
  facet normal 1 -0 0
    outer loop
      vertex 43.4502 -6 16.0462
      vertex 43.4502 12.565 0
      vertex 43.4502 6 16.0462
    endloop
  endfacet
  facet normal 1 0 0
    outer loop
      vertex 43.4502 -6 16.0462
      vertex 43.4502 -12.565 0
      vertex 43.4502 12.565 0
    endloop
  endfacet
  facet normal 1 0 0
    outer loop
      vertex 43.4502 -12.565 0
      vertex 43.4502 -6 16.0462
      vertex 43.4502 -12.565 25.7764
    endloop
  endfacet
  facet normal 0 0 -1
    outer loop
      vertex -43.4502 -12.565 0
      vertex 43.4502 12.565 0
      vertex 43.4502 -12.565 0
    endloop
  endfacet
  facet normal -0 0 -1
    outer loop
      vertex 43.4502 12.565 0
      vertex -43.4502 -12.565 0
      vertex -43.4502 12.565 0
    endloop
  endfacet
  facet normal 0 -1 0
    outer loop
      vertex -43.4502 -12.565 8.5652
      vertex -38.4502 -12.565 7.5
      vertex -40.005 -12.565 8.5652
    endloop
  endfacet
  facet normal 0 -1 0
    outer loop
      vertex -38.4502 -12.565 7.5
      vertex -33.535 -12.565 4.4
      vertex -33.535 -12.565 7.5
    endloop
  endfacet
  facet normal 0 -1 0
    outer loop
      vertex -43.4502 -12.565 0
      vertex -38.4502 -12.565 7.5
      vertex -43.4502 -12.565 8.5652
    endloop
  endfacet
  facet normal 0 -1 0
    outer loop
      vertex -43.4502 -12.565 0
      vertex -11.685 -12.565 4.4
      vertex -33.535 -12.565 4.4
    endloop
  endfacet
  facet normal 0 -1 -0
    outer loop
      vertex -11.685 -12.565 4.4
      vertex -43.4502 -12.565 0
      vertex 11.685 -12.565 4.4
    endloop
  endfacet
  facet normal 0 -1 0
    outer loop
      vertex 43.4502 -12.565 0
      vertex 11.685 -12.565 4.4
      vertex -43.4502 -12.565 0
    endloop
  endfacet
  facet normal 0 -1 -0
    outer loop
      vertex -38.4502 -12.565 7.5
      vertex -43.4502 -12.565 0
      vertex -33.535 -12.565 4.4
    endloop
  endfacet
  facet normal 0 -1 0
    outer loop
      vertex 38.4502 -12.565 25.7764
      vertex 40.005 -12.565 13.5652
      vertex 43.4502 -12.565 25.7764
    endloop
  endfacet
  facet normal 0 -1 0
    outer loop
      vertex 38.4502 -12.565 7.5
      vertex 40.005 -12.565 13.5652
      vertex 38.4502 -12.565 25.7764
    endloop
  endfacet
  facet normal 0 -1 -0
    outer loop
      vertex 40.005 -12.565 13.5652
      vertex 38.4502 -12.565 7.5
      vertex 40.005 -12.565 8.5652
    endloop
  endfacet
  facet normal 0 -1 0
    outer loop
      vertex 38.4502 -12.565 7.5
      vertex 43.4502 -12.565 8.5652
      vertex 40.005 -12.565 8.5652
    endloop
  endfacet
  facet normal 0 -1 0
    outer loop
      vertex 43.4502 -12.565 0
      vertex 38.4502 -12.565 7.5
      vertex 33.535 -12.565 4.4
    endloop
  endfacet
  facet normal 0 -1 0
    outer loop
      vertex 38.4502 -12.565 7.5
      vertex 43.4502 -12.565 0
      vertex 43.4502 -12.565 8.5652
    endloop
  endfacet
  facet normal 0 -1 0
    outer loop
      vertex 11.685 -12.565 4.4
      vertex 43.4502 -12.565 0
      vertex 33.535 -12.565 4.4
    endloop
  endfacet
  facet normal 0 -1 -0
    outer loop
      vertex 43.4502 -12.565 25.7764
      vertex 40.005 -12.565 13.5652
      vertex 43.4502 -12.565 13.5652
    endloop
  endfacet
  facet normal 0 -1 0
    outer loop
      vertex -40.005 -12.565 13.5652
      vertex -43.4502 -12.565 25.7764
      vertex -43.4502 -12.565 13.5652
    endloop
  endfacet
  facet normal 0 -1 0
    outer loop
      vertex -43.4502 -12.565 25.7764
      vertex -40.005 -12.565 13.5652
      vertex -38.4502 -12.565 25.7764
    endloop
  endfacet
  facet normal 0 -1 0
    outer loop
      vertex -38.4502 -12.565 7.5
      vertex -40.005 -12.565 13.5652
      vertex -40.005 -12.565 8.5652
    endloop
  endfacet
  facet normal 0 -1 0
    outer loop
      vertex -40.005 -12.565 13.5652
      vertex -38.4502 -12.565 7.5
      vertex -38.4502 -12.565 25.7764
    endloop
  endfacet
  facet normal 0 -1 0
    outer loop
      vertex -11.685 -12.565 4.4
      vertex 11.685 -12.565 7.5
      vertex -11.685 -12.565 7.5
    endloop
  endfacet
  facet normal 0 -1 -0
    outer loop
      vertex 11.685 -12.565 7.5
      vertex -11.685 -12.565 4.4
      vertex 11.685 -12.565 4.4
    endloop
  endfacet
  facet normal 0 -1 0
    outer loop
      vertex 33.535 -12.565 7.5
      vertex 33.535 -12.565 4.4
      vertex 38.4502 -12.565 7.5
    endloop
  endfacet
  facet normal -0 0 0
    outer loop
      vertex -43.4502 -12.565 13.5652
      vertex -43.4502 -12.565 25.7764
      vertex -43.4502 -12.565 0
    endloop
  endfacet
  facet normal 0 -0 0
    outer loop
      vertex 43.4502 -12.565 8.5652
      vertex 43.4502 -12.565 0
      vertex 43.4502 -12.565 25.7764
    endloop
  endfacet
  facet normal -0 0 0
    outer loop
      vertex -43.4502 -12.565 8.5652
      vertex -43.4502 -12.565 13.5652
      vertex -43.4502 -12.565 0
    endloop
  endfacet
  facet normal 0 0 0
    outer loop
      vertex 43.4502 -12.565 25.7764
      vertex 43.4502 -12.565 13.5652
      vertex 43.4502 -12.565 8.5652
    endloop
  endfacet
  facet normal 0 1 0
    outer loop
      vertex 43.4502 12.565 8.5652
      vertex 38.4502 12.565 7.5
      vertex 40.005 12.565 8.5652
    endloop
  endfacet
  facet normal 0 1 0
    outer loop
      vertex 38.4502 12.565 7.5
      vertex 33.535 12.565 4.4
      vertex 33.535 12.565 7.5
    endloop
  endfacet
  facet normal 0 1 -0
    outer loop
      vertex 43.4502 12.565 0
      vertex 38.4502 12.565 7.5
      vertex 43.4502 12.565 8.5652
    endloop
  endfacet
  facet normal 0 1 0
    outer loop
      vertex 43.4502 12.565 0
      vertex 11.685 12.565 4.4
      vertex 33.535 12.565 4.4
    endloop
  endfacet
  facet normal 0 1 0
    outer loop
      vertex 11.685 12.565 4.4
      vertex 43.4502 12.565 0
      vertex -11.685 12.565 4.4
    endloop
  endfacet
  facet normal 0 1 0
    outer loop
      vertex -43.4502 12.565 0
      vertex -11.685 12.565 4.4
      vertex 43.4502 12.565 0
    endloop
  endfacet
  facet normal 0 1 0
    outer loop
      vertex 38.4502 12.565 7.5
      vertex 43.4502 12.565 0
      vertex 33.535 12.565 4.4
    endloop
  endfacet
  facet normal 0 1 0
    outer loop
      vertex -38.4502 12.565 25.7764
      vertex -40.005 12.565 13.5652
      vertex -43.4502 12.565 25.7764
    endloop
  endfacet
  facet normal 0 1 -0
    outer loop
      vertex -38.4502 12.565 7.5
      vertex -40.005 12.565 13.5652
      vertex -38.4502 12.565 25.7764
    endloop
  endfacet
  facet normal 0 1 0
    outer loop
      vertex -40.005 12.565 13.5652
      vertex -38.4502 12.565 7.5
      vertex -40.005 12.565 8.5652
    endloop
  endfacet
  facet normal 0 1 0
    outer loop
      vertex -38.4502 12.565 7.5
      vertex -43.4502 12.565 8.5652
      vertex -40.005 12.565 8.5652
    endloop
  endfacet
  facet normal 0 1 0
    outer loop
      vertex -43.4502 12.565 0
      vertex -38.4502 12.565 7.5
      vertex -33.535 12.565 4.4
    endloop
  endfacet
  facet normal 0 1 0
    outer loop
      vertex -38.4502 12.565 7.5
      vertex -43.4502 12.565 0
      vertex -43.4502 12.565 8.5652
    endloop
  endfacet
  facet normal 0 1 0
    outer loop
      vertex -11.685 12.565 4.4
      vertex -43.4502 12.565 0
      vertex -33.535 12.565 4.4
    endloop
  endfacet
  facet normal 0 1 0
    outer loop
      vertex -43.4502 12.565 25.7764
      vertex -40.005 12.565 13.5652
      vertex -43.4502 12.565 13.5652
    endloop
  endfacet
  facet normal 0 1 0
    outer loop
      vertex 40.005 12.565 13.5652
      vertex 43.4502 12.565 25.7764
      vertex 43.4502 12.565 13.5652
    endloop
  endfacet
  facet normal 0 1 0
    outer loop
      vertex 43.4502 12.565 25.7764
      vertex 40.005 12.565 13.5652
      vertex 38.4502 12.565 25.7764
    endloop
  endfacet
  facet normal 0 1 0
    outer loop
      vertex 38.4502 12.565 7.5
      vertex 40.005 12.565 13.5652
      vertex 40.005 12.565 8.5652
    endloop
  endfacet
  facet normal 0 1 0
    outer loop
      vertex 40.005 12.565 13.5652
      vertex 38.4502 12.565 7.5
      vertex 38.4502 12.565 25.7764
    endloop
  endfacet
  facet normal 0 1 -0
    outer loop
      vertex 11.685 12.565 4.4
      vertex -11.685 12.565 7.5
      vertex 11.685 12.565 7.5
    endloop
  endfacet
  facet normal 0 1 0
    outer loop
      vertex -11.685 12.565 7.5
      vertex 11.685 12.565 4.4
      vertex -11.685 12.565 4.4
    endloop
  endfacet
  facet normal 0 1 0
    outer loop
      vertex -33.535 12.565 7.5
      vertex -33.535 12.565 4.4
      vertex -38.4502 12.565 7.5
    endloop
  endfacet
  facet normal 0 -0 0
    outer loop
      vertex -43.4502 12.565 8.5652
      vertex -43.4502 12.565 0
      vertex -43.4502 12.565 25.7764
    endloop
  endfacet
  facet normal 0 0 0
    outer loop
      vertex -43.4502 12.565 25.7764
      vertex -43.4502 12.565 13.5652
      vertex -43.4502 12.565 8.5652
    endloop
  endfacet
  facet normal 0 0 0
    outer loop
      vertex 43.4502 12.565 0
      vertex 43.4502 12.565 8.5652
      vertex 43.4502 12.565 13.5652
    endloop
  endfacet
  facet normal -0 0 0
    outer loop
      vertex 43.4502 12.565 13.5652
      vertex 43.4502 12.565 25.7764
      vertex 43.4502 12.565 0
    endloop
  endfacet
  facet normal 1 -0 0
    outer loop
      vertex -38.4502 -12.565 25.7764
      vertex -38.4502 -8.5 15.5764
      vertex -38.4502 -8.5 25.7764
    endloop
  endfacet
  facet normal 1 0 0
    outer loop
      vertex -38.4502 -12.565 7.5
      vertex -38.4502 -8.5 15.5764
      vertex -38.4502 -12.565 25.7764
    endloop
  endfacet
  facet normal 1 0 0
    outer loop
      vertex -38.4502 -8.5 15.5764
      vertex -38.4502 -12.565 7.5
      vertex -38.4502 -8.5 10.1462
    endloop
  endfacet
  facet normal 1 0 0
    outer loop
      vertex -38.4502 -8.5 10.1462
      vertex -38.4502 -12.565 7.5
      vertex -38.4502 -10.065 7.5
    endloop
  endfacet
  facet normal 1 -0 0
    outer loop
      vertex -38.4502 8.5 15.5764
      vertex -38.4502 12.565 7.5
      vertex -38.4502 12.565 25.7764
    endloop
  endfacet
  facet normal 1 0 0
    outer loop
      vertex -38.4502 8.5 15.5764
      vertex -38.4502 12.565 25.7764
      vertex -38.4502 8.5 25.7764
    endloop
  endfacet
  facet normal 1 -0 0
    outer loop
      vertex -38.4502 8.5 10.1462
      vertex -38.4502 12.565 7.5
      vertex -38.4502 8.5 15.5764
    endloop
  endfacet
  facet normal 1 0 0
    outer loop
      vertex -38.4502 12.565 7.5
      vertex -38.4502 8.5 10.1462
      vertex -38.4502 10.065 7.5
    endloop
  endfacet
  facet normal 1 0 0
    outer loop
      vertex -38.4502 10.065 7.5
      vertex -38.4502 8.5 10.1462
      vertex -38.4502 10.065 2.5
    endloop
  endfacet
  facet normal 1 -0 0
    outer loop
      vertex -38.4502 -8.5 10.1462
      vertex -38.4502 10.065 2.5
      vertex -38.4502 8.5 10.1462
    endloop
  endfacet
  facet normal 1 0 0
    outer loop
      vertex -38.4502 -10.065 2.5
      vertex -38.4502 -8.5 10.1462
      vertex -38.4502 -10.065 7.5
    endloop
  endfacet
  facet normal 1 0 0
    outer loop
      vertex -38.4502 -8.5 10.1462
      vertex -38.4502 -10.065 2.5
      vertex -38.4502 10.065 2.5
    endloop
  endfacet
  facet normal -1 0 0
    outer loop
      vertex 38.4502 -10.065 7.5
      vertex 38.4502 10.065 7.5
      vertex 38.4502 10.065 2.5
    endloop
  endfacet
  facet normal -1 0 0
    outer loop
      vertex 38.4502 10.065 7.5
      vertex 38.4502 -10.065 7.5
      vertex 38.4502 6 21.0462
    endloop
  endfacet
  facet normal -1 0 0
    outer loop
      vertex 38.4502 -10.065 7.5
      vertex 38.4502 10.065 2.5
      vertex 38.4502 -10.065 2.5
    endloop
  endfacet
  facet normal -1 -0 0
    outer loop
      vertex 38.4502 6 21.0462
      vertex 38.4502 -10.065 7.5
      vertex 38.4502 -6 21.0462
    endloop
  endfacet
  facet normal -1 0 0
    outer loop
      vertex 38.4502 -12.565 7.5
      vertex 38.4502 -6 21.0462
      vertex 38.4502 -10.065 7.5
    endloop
  endfacet
  facet normal -1 -0 0
    outer loop
      vertex 38.4502 -6 21.0462
      vertex 38.4502 -12.565 7.5
      vertex 38.4502 -12.565 25.7764
    endloop
  endfacet
  facet normal -1 0 0
    outer loop
      vertex 38.4502 -6 21.0462
      vertex 38.4502 -12.565 25.7764
      vertex 38.4502 -6 25.7764
    endloop
  endfacet
  facet normal -1 0 0
    outer loop
      vertex 38.4502 6 21.0462
      vertex 38.4502 12.565 7.5
      vertex 38.4502 10.065 7.5
    endloop
  endfacet
  facet normal -1 0 0
    outer loop
      vertex 38.4502 12.565 7.5
      vertex 38.4502 6 21.0462
      vertex 38.4502 12.565 25.7764
    endloop
  endfacet
  facet normal -1 -0 0
    outer loop
      vertex 38.4502 12.565 25.7764
      vertex 38.4502 6 21.0462
      vertex 38.4502 6 25.7764
    endloop
  endfacet
  facet normal 0 0 1
    outer loop
      vertex 38.4502 10.065 2.5
      vertex 12.3344 -2.5246 2.5
      vertex 38.4502 -10.065 2.5
    endloop
  endfacet
  facet normal -0 0 1
    outer loop
      vertex -6.7156 5.9844 2.5
      vertex 12.3344 -2.5246 2.5
      vertex 38.4502 10.065 2.5
    endloop
  endfacet
  facet normal -0 0 1
    outer loop
      vertex -6.7156 0.365599 2.5
      vertex 6.7156 -2.5246 2.5
      vertex -6.7156 5.9844 2.5
    endloop
  endfacet
  facet normal 0 0 1
    outer loop
      vertex 12.3344 -2.5246 2.5
      vertex -6.7156 5.9844 2.5
      vertex 6.7156 -2.5246 2.5
    endloop
  endfacet
  facet normal -0 0 1
    outer loop
      vertex -38.4502 10.065 2.5
      vertex -6.7156 5.9844 2.5
      vertex 38.4502 10.065 2.5
    endloop
  endfacet
  facet normal 0 0 1
    outer loop
      vertex -12.3344 5.9844 2.5
      vertex -38.4502 10.065 2.5
      vertex -12.3344 0.365599 2.5
    endloop
  endfacet
  facet normal 0 0 1
    outer loop
      vertex -6.7156 5.9844 2.5
      vertex -38.4502 10.065 2.5
      vertex -12.3344 5.9844 2.5
    endloop
  endfacet
  facet normal -0 0 1
    outer loop
      vertex 12.3344 -8.1434 2.5
      vertex 38.4502 -10.065 2.5
      vertex 12.3344 -2.5246 2.5
    endloop
  endfacet
  facet normal -0 0 1
    outer loop
      vertex 6.7156 -8.1434 2.5
      vertex 38.4502 -10.065 2.5
      vertex 12.3344 -8.1434 2.5
    endloop
  endfacet
  facet normal 0 0 1
    outer loop
      vertex 6.7156 -2.5246 2.5
      vertex -6.7156 0.365599 2.5
      vertex 6.7156 -8.1434 2.5
    endloop
  endfacet
  facet normal -0 0 1
    outer loop
      vertex -12.3344 0.365599 2.5
      vertex 6.7156 -8.1434 2.5
      vertex -6.7156 0.365599 2.5
    endloop
  endfacet
  facet normal 0 0 1
    outer loop
      vertex -38.4502 -10.065 2.5
      vertex -12.3344 0.365599 2.5
      vertex -38.4502 10.065 2.5
    endloop
  endfacet
  facet normal 0 0 1
    outer loop
      vertex 6.7156 -8.1434 2.5
      vertex -38.4502 -10.065 2.5
      vertex 38.4502 -10.065 2.5
    endloop
  endfacet
  facet normal 0 0 1
    outer loop
      vertex -12.3344 0.365599 2.5
      vertex -38.4502 -10.065 2.5
      vertex 6.7156 -8.1434 2.5
    endloop
  endfacet
  facet normal 0 1 0
    outer loop
      vertex 38.4502 -10.065 7.5
      vertex 33.535 -10.065 4.4
      vertex 33.535 -10.065 7.5
    endloop
  endfacet
  facet normal 0 1 0
    outer loop
      vertex 38.4502 -10.065 2.5
      vertex 11.685 -10.065 4.4
      vertex 33.535 -10.065 4.4
    endloop
  endfacet
  facet normal 0 1 0
    outer loop
      vertex 11.685 -10.065 4.4
      vertex 38.4502 -10.065 2.5
      vertex -11.685 -10.065 4.4
    endloop
  endfacet
  facet normal 0 1 0
    outer loop
      vertex -38.4502 -10.065 2.5
      vertex -11.685 -10.065 4.4
      vertex 38.4502 -10.065 2.5
    endloop
  endfacet
  facet normal 0 1 -0
    outer loop
      vertex 38.4502 -10.065 2.5
      vertex 33.535 -10.065 4.4
      vertex 38.4502 -10.065 7.5
    endloop
  endfacet
  facet normal 0 1 -0
    outer loop
      vertex 11.685 -10.065 4.4
      vertex -11.685 -10.065 7.5
      vertex 11.685 -10.065 7.5
    endloop
  endfacet
  facet normal 0 1 0
    outer loop
      vertex -11.685 -10.065 7.5
      vertex 11.685 -10.065 4.4
      vertex -11.685 -10.065 4.4
    endloop
  endfacet
  facet normal 0 1 -0
    outer loop
      vertex -33.535 -10.065 4.4
      vertex -38.4502 -10.065 7.5
      vertex -33.535 -10.065 7.5
    endloop
  endfacet
  facet normal 0 1 0
    outer loop
      vertex -33.535 -10.065 4.4
      vertex -38.4502 -10.065 2.5
      vertex -38.4502 -10.065 7.5
    endloop
  endfacet
  facet normal 0 1 0
    outer loop
      vertex -11.685 -10.065 4.4
      vertex -38.4502 -10.065 2.5
      vertex -33.535 -10.065 4.4
    endloop
  endfacet
  facet normal 0 -1 0
    outer loop
      vertex -38.4502 10.065 7.5
      vertex -33.535 10.065 4.4
      vertex -33.535 10.065 7.5
    endloop
  endfacet
  facet normal 0 -1 0
    outer loop
      vertex -38.4502 10.065 2.5
      vertex -11.685 10.065 4.4
      vertex -33.535 10.065 4.4
    endloop
  endfacet
  facet normal 0 -1 -0
    outer loop
      vertex -11.685 10.065 4.4
      vertex -38.4502 10.065 2.5
      vertex 11.685 10.065 4.4
    endloop
  endfacet
  facet normal 0 -1 0
    outer loop
      vertex 38.4502 10.065 2.5
      vertex 11.685 10.065 4.4
      vertex -38.4502 10.065 2.5
    endloop
  endfacet
  facet normal 0 -1 0
    outer loop
      vertex -38.4502 10.065 2.5
      vertex -33.535 10.065 4.4
      vertex -38.4502 10.065 7.5
    endloop
  endfacet
  facet normal 0 -1 0
    outer loop
      vertex -11.685 10.065 4.4
      vertex 11.685 10.065 7.5
      vertex -11.685 10.065 7.5
    endloop
  endfacet
  facet normal 0 -1 -0
    outer loop
      vertex 11.685 10.065 7.5
      vertex -11.685 10.065 4.4
      vertex 11.685 10.065 4.4
    endloop
  endfacet
  facet normal 0 -1 0
    outer loop
      vertex 33.535 10.065 4.4
      vertex 38.4502 10.065 7.5
      vertex 33.535 10.065 7.5
    endloop
  endfacet
  facet normal 0 -1 0
    outer loop
      vertex 33.535 10.065 4.4
      vertex 38.4502 10.065 2.5
      vertex 38.4502 10.065 7.5
    endloop
  endfacet
  facet normal 0 -1 0
    outer loop
      vertex 11.685 10.065 4.4
      vertex 38.4502 10.065 2.5
      vertex 33.535 10.065 4.4
    endloop
  endfacet
  facet normal -0 0 1
    outer loop
      vertex -38.4502 -10.065 7.5
      vertex -33.535 -12.565 7.5
      vertex -33.535 -10.065 7.5
    endloop
  endfacet
  facet normal 0 0 1
    outer loop
      vertex -33.535 -12.565 7.5
      vertex -38.4502 -10.065 7.5
      vertex -38.4502 -12.565 7.5
    endloop
  endfacet
  facet normal -0 0 1
    outer loop
      vertex 33.535 -10.065 7.5
      vertex 38.4502 -12.565 7.5
      vertex 38.4502 -10.065 7.5
    endloop
  endfacet
  facet normal 0 0 1
    outer loop
      vertex 38.4502 -12.565 7.5
      vertex 33.535 -10.065 7.5
      vertex 33.535 -12.565 7.5
    endloop
  endfacet
  facet normal -0 0 1
    outer loop
      vertex -11.685 -10.065 7.5
      vertex 11.685 -12.565 7.5
      vertex 11.685 -10.065 7.5
    endloop
  endfacet
  facet normal 0 0 1
    outer loop
      vertex 11.685 -12.565 7.5
      vertex -11.685 -10.065 7.5
      vertex -11.685 -12.565 7.5
    endloop
  endfacet
  facet normal -0 0 1
    outer loop
      vertex 33.535 12.565 7.5
      vertex 38.4502 10.065 7.5
      vertex 38.4502 12.565 7.5
    endloop
  endfacet
  facet normal 0 0 1
    outer loop
      vertex 38.4502 10.065 7.5
      vertex 33.535 12.565 7.5
      vertex 33.535 10.065 7.5
    endloop
  endfacet
  facet normal -0 0 1
    outer loop
      vertex -38.4502 12.565 7.5
      vertex -33.535 10.065 7.5
      vertex -33.535 12.565 7.5
    endloop
  endfacet
  facet normal 0 0 1
    outer loop
      vertex -33.535 10.065 7.5
      vertex -38.4502 12.565 7.5
      vertex -38.4502 10.065 7.5
    endloop
  endfacet
  facet normal -0 0 1
    outer loop
      vertex -11.685 12.565 7.5
      vertex 11.685 10.065 7.5
      vertex 11.685 12.565 7.5
    endloop
  endfacet
  facet normal 0 0 1
    outer loop
      vertex 11.685 10.065 7.5
      vertex -11.685 12.565 7.5
      vertex -11.685 10.065 7.5
    endloop
  endfacet
  facet normal 0 -1 0
    outer loop
      vertex -43.4502 6 18.0764
      vertex -38.4502 6 25.7764
      vertex -43.4502 6 25.7764
    endloop
  endfacet
  facet normal 0 -1 -0
    outer loop
      vertex -38.4502 6 25.7764
      vertex -43.4502 6 18.0764
      vertex -38.4502 6 18.0764
    endloop
  endfacet
  facet normal 0 1 -0
    outer loop
      vertex -33.02 8.5 15.5764
      vertex -38.4502 8.5 25.7764
      vertex -33.02 8.5 25.7764
    endloop
  endfacet
  facet normal 0 1 0
    outer loop
      vertex -38.4502 8.5 25.7764
      vertex -33.02 8.5 15.5764
      vertex -38.4502 8.5 15.5764
    endloop
  endfacet
  facet normal 0 -1 0
    outer loop
      vertex -38.4502 -8.5 15.5764
      vertex -33.02 -8.5 25.7764
      vertex -38.4502 -8.5 25.7764
    endloop
  endfacet
  facet normal 0 -1 -0
    outer loop
      vertex -33.02 -8.5 25.7764
      vertex -38.4502 -8.5 15.5764
      vertex -33.02 -8.5 15.5764
    endloop
  endfacet
  facet normal 1 0 0
    outer loop
      vertex -33.02 -3.75 25.7764
      vertex -33.02 -8.5 25.7764
      vertex -33.02 -3.75 22.3264
    endloop
  endfacet
  facet normal 1 0 0
    outer loop
      vertex -33.02 3.75 22.3264
      vertex -33.02 8.5 25.7764
      vertex -33.02 3.75 25.7764
    endloop
  endfacet
  facet normal 1 0 0
    outer loop
      vertex -33.02 8.5 25.7764
      vertex -33.02 3.75 22.3264
      vertex -33.02 8.5 15.5764
    endloop
  endfacet
  facet normal 1 -0 0
    outer loop
      vertex -33.02 -3.75 22.3264
      vertex -33.02 8.5 15.5764
      vertex -33.02 3.75 22.3264
    endloop
  endfacet
  facet normal 1 0 0
    outer loop
      vertex -33.02 -3.75 22.3264
      vertex -33.02 -8.5 15.5764
      vertex -33.02 8.5 15.5764
    endloop
  endfacet
  facet normal 1 0 0
    outer loop
      vertex -33.02 -8.5 15.5764
      vertex -33.02 -3.75 22.3264
      vertex -33.02 -8.5 25.7764
    endloop
  endfacet
  facet normal 0 0 -1
    outer loop
      vertex -38.4502 -8.5 15.5764
      vertex -33.02 8.5 15.5764
      vertex -33.02 -8.5 15.5764
    endloop
  endfacet
  facet normal -0 0 -1
    outer loop
      vertex -33.02 8.5 15.5764
      vertex -38.4502 -8.5 15.5764
      vertex -38.4502 8.5 15.5764
    endloop
  endfacet
  facet normal 0 -1 0
    outer loop
      vertex -38.4502 6 18.0764
      vertex -33.72 6 25.7764
      vertex -38.4502 6 25.7764
    endloop
  endfacet
  facet normal 0 -1 -0
    outer loop
      vertex -33.72 6 25.7764
      vertex -38.4502 6 18.0764
      vertex -33.72 6 18.0764
    endloop
  endfacet
  facet normal 0 1 -0
    outer loop
      vertex -33.72 -6 18.0764
      vertex -43.4502 -6 25.7764
      vertex -33.72 -6 25.7764
    endloop
  endfacet
  facet normal 0 1 0
    outer loop
      vertex -43.4502 -6 25.7764
      vertex -33.72 -6 18.0764
      vertex -43.4502 -6 18.0764
    endloop
  endfacet
  facet normal 0 0 1
    outer loop
      vertex -33.72 6 18.0764
      vertex -38.4502 6 18.0764
      vertex -33.72 -6 18.0764
    endloop
  endfacet
  facet normal 0 0 1
    outer loop
      vertex -43.4502 -6 18.0764
      vertex -38.4502 6 18.0764
      vertex -43.4502 6 18.0764
    endloop
  endfacet
  facet normal 0 0 1
    outer loop
      vertex -38.4502 6 18.0764
      vertex -43.4502 -6 18.0764
      vertex -33.72 -6 18.0764
    endloop
  endfacet
  facet normal -1 0 0
    outer loop
      vertex -33.72 6 18.0764
      vertex -33.72 3.75 22.3264
      vertex -33.72 6 25.7764
    endloop
  endfacet
  facet normal -1 0 0
    outer loop
      vertex -33.72 6 18.0764
      vertex -33.72 -3.75 22.3264
      vertex -33.72 3.75 22.3264
    endloop
  endfacet
  facet normal -1 0 0
    outer loop
      vertex -33.72 -6 18.0764
      vertex -33.72 -3.75 22.3264
      vertex -33.72 6 18.0764
    endloop
  endfacet
  facet normal -1 0 0
    outer loop
      vertex -33.72 -6 25.7764
      vertex -33.72 -3.75 22.3264
      vertex -33.72 -6 18.0764
    endloop
  endfacet
  facet normal -1 0 0
    outer loop
      vertex -33.72 -3.75 22.3264
      vertex -33.72 -6 25.7764
      vertex -33.72 -3.75 25.7764
    endloop
  endfacet
  facet normal -1 -0 0
    outer loop
      vertex -33.72 6 25.7764
      vertex -33.72 3.75 22.3264
      vertex -33.72 3.75 25.7764
    endloop
  endfacet
  facet normal 0 -1 0
    outer loop
      vertex -33.72 3.75 22.3264
      vertex -33.02 3.75 25.7764
      vertex -33.72 3.75 25.7764
    endloop
  endfacet
  facet normal 0 -1 -0
    outer loop
      vertex -33.02 3.75 25.7764
      vertex -33.72 3.75 22.3264
      vertex -33.02 3.75 22.3264
    endloop
  endfacet
  facet normal 0 1 -0
    outer loop
      vertex -33.02 -3.75 22.3264
      vertex -33.72 -3.75 25.7764
      vertex -33.02 -3.75 25.7764
    endloop
  endfacet
  facet normal 0 1 0
    outer loop
      vertex -33.72 -3.75 25.7764
      vertex -33.02 -3.75 22.3264
      vertex -33.72 -3.75 22.3264
    endloop
  endfacet
  facet normal -0 0 1
    outer loop
      vertex -33.72 3.75 22.3264
      vertex -33.02 -3.75 22.3264
      vertex -33.02 3.75 22.3264
    endloop
  endfacet
  facet normal 0 0 1
    outer loop
      vertex -33.02 -3.75 22.3264
      vertex -33.72 3.75 22.3264
      vertex -33.72 -3.75 22.3264
    endloop
  endfacet
  facet normal -0 0 1
    outer loop
      vertex -38.4502 8.5 15.5764
      vertex -33.02 -8.5 15.5764
      vertex -33.02 8.5 15.5764
    endloop
  endfacet
  facet normal 0 0 1
    outer loop
      vertex -33.02 -8.5 15.5764
      vertex -38.4502 8.5 15.5764
      vertex -38.4502 -8.5 15.5764
    endloop
  endfacet
  facet normal 0 1 0
    outer loop
      vertex -33.02 8.5 15.5764
      vertex -38.4502 8.5 10.1462
      vertex -38.4502 8.5 15.5764
    endloop
  endfacet
  facet normal 0 -1 0
    outer loop
      vertex -38.4502 -8.5 15.5764
      vertex -38.4502 -8.5 10.1462
      vertex -33.02 -8.5 15.5764
    endloop
  endfacet
  facet normal 0.707107 0 -0.707107
    outer loop
      vertex -33.02 -8.5 15.5764
      vertex -38.4502 8.5 10.1462
      vertex -33.02 8.5 15.5764
    endloop
  endfacet
  facet normal 0.707107 0 -0.707107
    outer loop
      vertex -38.4502 8.5 10.1462
      vertex -33.02 -8.5 15.5764
      vertex -38.4502 -8.5 10.1462
    endloop
  endfacet
  facet normal 1 -0 0
    outer loop
      vertex 43.4502 -6 25.7764
      vertex 43.4502 6 16.0462
      vertex 43.4502 6 25.7764
    endloop
  endfacet
  facet normal 1 0 0
    outer loop
      vertex 43.4502 6 16.0462
      vertex 43.4502 -6 25.7764
      vertex 43.4502 -6 16.0462
    endloop
  endfacet
  facet normal -0 0 1
    outer loop
      vertex 33.72 6 25.7764
      vertex 43.4502 -6 25.7764
      vertex 43.4502 6 25.7764
    endloop
  endfacet
  facet normal 0 0 1
    outer loop
      vertex 43.4502 -6 25.7764
      vertex 33.72 6 25.7764
      vertex 33.72 -6 25.7764
    endloop
  endfacet
  facet normal 0 -1 0
    outer loop
      vertex 33.72 -6 25.7764
      vertex 38.4502 -6 21.0462
      vertex 38.4502 -6 25.7764
    endloop
  endfacet
  facet normal 0 0 0
    outer loop
      vertex 33.72 -6 25.7764
      vertex 38.4502 -6 25.7764
      vertex 43.4502 -6 25.7764
    endloop
  endfacet
  facet normal 0 1 0
    outer loop
      vertex 38.4502 6 25.7764
      vertex 38.4502 6 21.0462
      vertex 33.72 6 25.7764
    endloop
  endfacet
  facet normal 0 0 -0
    outer loop
      vertex 38.4502 6 25.7764
      vertex 33.72 6 25.7764
      vertex 43.4502 6 25.7764
    endloop
  endfacet
  facet normal -0.707107 0 -0.707107
    outer loop
      vertex 38.4502 -6 21.0462
      vertex 33.72 6 25.7764
      vertex 38.4502 6 21.0462
    endloop
  endfacet
  facet normal -0.707107 -0 -0.707107
    outer loop
      vertex 33.72 6 25.7764
      vertex 38.4502 -6 21.0462
      vertex 33.72 -6 25.7764
    endloop
  endfacet
  facet normal 1 -0 0
    outer loop
      vertex 43.4502 -6 28.2764
      vertex 43.4502 6 25.7764
      vertex 43.4502 6 28.2764
    endloop
  endfacet
  facet normal 1 0 0
    outer loop
      vertex 43.4502 6 25.7764
      vertex 43.4502 -6 28.2764
      vertex 43.4502 -6 25.7764
    endloop
  endfacet
  facet normal -0 0 1
    outer loop
      vertex 33.72 6 28.2764
      vertex 43.4502 -6 28.2764
      vertex 43.4502 6 28.2764
    endloop
  endfacet
  facet normal 0 0 1
    outer loop
      vertex 43.4502 -6 28.2764
      vertex 33.72 6 28.2764
      vertex 33.72 -6 28.2764
    endloop
  endfacet
  facet normal -1 0 0
    outer loop
      vertex 33.72 -6 25.7764
      vertex 33.72 6 28.2764
      vertex 33.72 6 25.7764
    endloop
  endfacet
  facet normal -1 -0 0
    outer loop
      vertex 33.72 6 28.2764
      vertex 33.72 -6 25.7764
      vertex 33.72 -6 28.2764
    endloop
  endfacet
  facet normal 0 0 -1
    outer loop
      vertex 33.72 -6 25.7764
      vertex 43.4502 6 25.7764
      vertex 43.4502 -6 25.7764
    endloop
  endfacet
  facet normal -0 0 -1
    outer loop
      vertex 43.4502 6 25.7764
      vertex 33.72 -6 25.7764
      vertex 33.72 6 25.7764
    endloop
  endfacet
  facet normal 0 -1 0
    outer loop
      vertex 33.72 -6 25.7764
      vertex 43.4502 -6 28.2764
      vertex 33.72 -6 28.2764
    endloop
  endfacet
  facet normal 0 -1 -0
    outer loop
      vertex 43.4502 -6 28.2764
      vertex 33.72 -6 25.7764
      vertex 43.4502 -6 25.7764
    endloop
  endfacet
  facet normal 0 1 -0
    outer loop
      vertex 43.4502 6 25.7764
      vertex 33.72 6 28.2764
      vertex 43.4502 6 28.2764
    endloop
  endfacet
  facet normal 0 1 0
    outer loop
      vertex 33.72 6 28.2764
      vertex 43.4502 6 25.7764
      vertex 33.72 6 25.7764
    endloop
  endfacet
  facet normal -1 0 0
    outer loop
      vertex 40.005 -12.565 8.5652
      vertex 40.005 -15.065 11.0652
      vertex 40.005 -12.565 13.5652
    endloop
  endfacet
  facet normal 1 0 0
    outer loop
      vertex 43.4502 -12.565 13.5652
      vertex 43.4502 -15.065 11.0652
      vertex 43.4502 -12.565 8.5652
    endloop
  endfacet
  facet normal 0 -0.707107 0.707107
    outer loop
      vertex 40.005 -12.565 13.5652
      vertex 43.4502 -15.065 11.0652
      vertex 43.4502 -12.565 13.5652
    endloop
  endfacet
  facet normal 0 -0.707107 0.707107
    outer loop
      vertex 43.4502 -15.065 11.0652
      vertex 40.005 -12.565 13.5652
      vertex 40.005 -15.065 11.0652
    endloop
  endfacet
  facet normal 0 -0.707107 -0.707107
    outer loop
      vertex 40.005 -12.565 8.5652
      vertex 43.4502 -15.065 11.0652
      vertex 40.005 -15.065 11.0652
    endloop
  endfacet
  facet normal 0 -0.707107 -0.707107
    outer loop
      vertex 43.4502 -15.065 11.0652
      vertex 40.005 -12.565 8.5652
      vertex 43.4502 -12.565 8.5652
    endloop
  endfacet
  facet normal 1 0 0
    outer loop
      vertex -40.005 -12.565 13.5652
      vertex -40.005 -15.065 11.0652
      vertex -40.005 -12.565 8.5652
    endloop
  endfacet
  facet normal -1 0 0
    outer loop
      vertex -43.4502 -12.565 8.5652
      vertex -43.4502 -15.065 11.0652
      vertex -43.4502 -12.565 13.5652
    endloop
  endfacet
  facet normal 0 -0.707107 0.707107
    outer loop
      vertex -43.4502 -12.565 13.5652
      vertex -40.005 -15.065 11.0652
      vertex -40.005 -12.565 13.5652
    endloop
  endfacet
  facet normal 0 -0.707107 0.707107
    outer loop
      vertex -40.005 -15.065 11.0652
      vertex -43.4502 -12.565 13.5652
      vertex -43.4502 -15.065 11.0652
    endloop
  endfacet
  facet normal 0 -0.707107 -0.707107
    outer loop
      vertex -43.4502 -12.565 8.5652
      vertex -40.005 -15.065 11.0652
      vertex -43.4502 -15.065 11.0652
    endloop
  endfacet
  facet normal 0 -0.707107 -0.707107
    outer loop
      vertex -40.005 -15.065 11.0652
      vertex -43.4502 -12.565 8.5652
      vertex -40.005 -12.565 8.5652
    endloop
  endfacet
  facet normal -1 0 0
    outer loop
      vertex 40.005 12.565 13.5652
      vertex 40.005 15.065 11.0652
      vertex 40.005 12.565 8.5652
    endloop
  endfacet
  facet normal 1 0 0
    outer loop
      vertex 43.4502 15.065 11.0652
      vertex 43.4502 12.565 13.5652
      vertex 43.4502 12.565 8.5652
    endloop
  endfacet
  facet normal -0 0.707107 0.707107
    outer loop
      vertex 40.005 15.065 11.0652
      vertex 43.4502 12.565 13.5652
      vertex 43.4502 15.065 11.0652
    endloop
  endfacet
  facet normal 0 0.707107 0.707107
    outer loop
      vertex 43.4502 12.565 13.5652
      vertex 40.005 15.065 11.0652
      vertex 40.005 12.565 13.5652
    endloop
  endfacet
  facet normal 0 0.707107 -0.707107
    outer loop
      vertex 43.4502 12.565 8.5652
      vertex 40.005 15.065 11.0652
      vertex 43.4502 15.065 11.0652
    endloop
  endfacet
  facet normal 0 0.707107 -0.707107
    outer loop
      vertex 40.005 15.065 11.0652
      vertex 43.4502 12.565 8.5652
      vertex 40.005 12.565 8.5652
    endloop
  endfacet
  facet normal 1 0 0
    outer loop
      vertex -40.005 15.065 11.0652
      vertex -40.005 12.565 13.5652
      vertex -40.005 12.565 8.5652
    endloop
  endfacet
  facet normal -1 0 0
    outer loop
      vertex -43.4502 12.565 13.5652
      vertex -43.4502 15.065 11.0652
      vertex -43.4502 12.565 8.5652
    endloop
  endfacet
  facet normal -0 0.707107 0.707107
    outer loop
      vertex -43.4502 15.065 11.0652
      vertex -40.005 12.565 13.5652
      vertex -40.005 15.065 11.0652
    endloop
  endfacet
  facet normal 0 0.707107 0.707107
    outer loop
      vertex -40.005 12.565 13.5652
      vertex -43.4502 15.065 11.0652
      vertex -43.4502 12.565 13.5652
    endloop
  endfacet
  facet normal 0 0.707107 -0.707107
    outer loop
      vertex -40.005 12.565 8.5652
      vertex -43.4502 15.065 11.0652
      vertex -40.005 15.065 11.0652
    endloop
  endfacet
  facet normal 0 0.707107 -0.707107
    outer loop
      vertex -43.4502 15.065 11.0652
      vertex -40.005 12.565 8.5652
      vertex -43.4502 12.565 8.5652
    endloop
  endfacet
  facet normal 1 -0 0
    outer loop
      vertex -33.535 -12.565 7.5
      vertex -33.535 -10.065 4.4
      vertex -33.535 -10.065 7.5
    endloop
  endfacet
  facet normal 1 0 0
    outer loop
      vertex -33.535 -10.065 4.4
      vertex -33.535 -12.565 7.5
      vertex -33.535 -12.565 4.4
    endloop
  endfacet
  facet normal -1 0 0
    outer loop
      vertex -11.685 -12.565 4.4
      vertex -11.685 -10.065 7.5
      vertex -11.685 -10.065 4.4
    endloop
  endfacet
  facet normal -1 -0 0
    outer loop
      vertex -11.685 -10.065 7.5
      vertex -11.685 -12.565 4.4
      vertex -11.685 -12.565 7.5
    endloop
  endfacet
  facet normal -0 0 1
    outer loop
      vertex -33.535 -10.065 4.4
      vertex -11.685 -12.565 4.4
      vertex -11.685 -10.065 4.4
    endloop
  endfacet
  facet normal 0 0 1
    outer loop
      vertex -11.685 -12.565 4.4
      vertex -33.535 -10.065 4.4
      vertex -33.535 -12.565 4.4
    endloop
  endfacet
  facet normal 1 -0 0
    outer loop
      vertex 11.685 -12.565 7.5
      vertex 11.685 -10.065 4.4
      vertex 11.685 -10.065 7.5
    endloop
  endfacet
  facet normal 1 0 0
    outer loop
      vertex 11.685 -10.065 4.4
      vertex 11.685 -12.565 7.5
      vertex 11.685 -12.565 4.4
    endloop
  endfacet
  facet normal -1 0 0
    outer loop
      vertex 33.535 -12.565 4.4
      vertex 33.535 -10.065 7.5
      vertex 33.535 -10.065 4.4
    endloop
  endfacet
  facet normal -1 -0 0
    outer loop
      vertex 33.535 -10.065 7.5
      vertex 33.535 -12.565 4.4
      vertex 33.535 -12.565 7.5
    endloop
  endfacet
  facet normal -0 0 1
    outer loop
      vertex 11.685 -10.065 4.4
      vertex 33.535 -12.565 4.4
      vertex 33.535 -10.065 4.4
    endloop
  endfacet
  facet normal 0 0 1
    outer loop
      vertex 33.535 -12.565 4.4
      vertex 11.685 -10.065 4.4
      vertex 11.685 -12.565 4.4
    endloop
  endfacet
  facet normal 1 -0 0
    outer loop
      vertex -33.535 10.065 7.5
      vertex -33.535 12.565 4.4
      vertex -33.535 12.565 7.5
    endloop
  endfacet
  facet normal 1 0 0
    outer loop
      vertex -33.535 12.565 4.4
      vertex -33.535 10.065 7.5
      vertex -33.535 10.065 4.4
    endloop
  endfacet
  facet normal -1 0 0
    outer loop
      vertex -11.685 10.065 4.4
      vertex -11.685 12.565 7.5
      vertex -11.685 12.565 4.4
    endloop
  endfacet
  facet normal -1 -0 0
    outer loop
      vertex -11.685 12.565 7.5
      vertex -11.685 10.065 4.4
      vertex -11.685 10.065 7.5
    endloop
  endfacet
  facet normal -0 0 1
    outer loop
      vertex -33.535 12.565 4.4
      vertex -11.685 10.065 4.4
      vertex -11.685 12.565 4.4
    endloop
  endfacet
  facet normal 0 0 1
    outer loop
      vertex -11.685 10.065 4.4
      vertex -33.535 12.565 4.4
      vertex -33.535 10.065 4.4
    endloop
  endfacet
  facet normal 1 -0 0
    outer loop
      vertex 11.685 10.065 7.5
      vertex 11.685 12.565 4.4
      vertex 11.685 12.565 7.5
    endloop
  endfacet
  facet normal 1 0 0
    outer loop
      vertex 11.685 12.565 4.4
      vertex 11.685 10.065 7.5
      vertex 11.685 10.065 4.4
    endloop
  endfacet
  facet normal -1 0 0
    outer loop
      vertex 33.535 10.065 4.4
      vertex 33.535 12.565 7.5
      vertex 33.535 12.565 4.4
    endloop
  endfacet
  facet normal -1 -0 0
    outer loop
      vertex 33.535 12.565 7.5
      vertex 33.535 10.065 4.4
      vertex 33.535 10.065 7.5
    endloop
  endfacet
  facet normal -0 0 1
    outer loop
      vertex 11.685 12.565 4.4
      vertex 33.535 10.065 4.4
      vertex 33.535 12.565 4.4
    endloop
  endfacet
  facet normal 0 0 1
    outer loop
      vertex 33.535 10.065 4.4
      vertex 11.685 12.565 4.4
      vertex 11.685 10.065 4.4
    endloop
  endfacet
  facet normal -0.5 -0.866025 0
    outer loop
      vertex -9.525 5.71534 3.9
      vertex -7.325 4.44517 5.561
      vertex -9.525 5.71534 5.561
    endloop
  endfacet
  facet normal -0.5 -0.866025 -0
    outer loop
      vertex -7.325 4.44517 5.561
      vertex -9.525 5.71534 3.9
      vertex -7.325 4.44517 3.9
    endloop
  endfacet
  facet normal 1 -0 0
    outer loop
      vertex -11.725 1.90483 5.561
      vertex -11.725 4.44517 3.9
      vertex -11.725 4.44517 5.561
    endloop
  endfacet
  facet normal 1 0 0
    outer loop
      vertex -11.725 4.44517 3.9
      vertex -11.725 1.90483 5.561
      vertex -11.725 1.90483 3.9
    endloop
  endfacet
  facet normal 0.5 -0.866025 0
    outer loop
      vertex -11.725 4.44517 3.9
      vertex -9.525 5.71534 5.561
      vertex -11.725 4.44517 5.561
    endloop
  endfacet
  facet normal 0.5 -0.866025 0
    outer loop
      vertex -9.525 5.71534 5.561
      vertex -11.725 4.44517 3.9
      vertex -9.525 5.71534 3.9
    endloop
  endfacet
  facet normal 0 0 -1
    outer loop
      vertex -7.325 1.90483 5.561
      vertex -8.425 3.175 5.561
      vertex -7.325 4.44517 5.561
    endloop
  endfacet
  facet normal 0 0 -1
    outer loop
      vertex -7.325 1.90483 5.561
      vertex -8.53393 2.69773 5.561
      vertex -8.425 3.175 5.561
    endloop
  endfacet
  facet normal 0 0 -1
    outer loop
      vertex -7.325 1.90483 5.561
      vertex -8.83916 2.31499 5.561
      vertex -8.53393 2.69773 5.561
    endloop
  endfacet
  facet normal 0 0 -1
    outer loop
      vertex -9.525 0.63466 5.561
      vertex -8.83916 2.31499 5.561
      vertex -7.325 1.90483 5.561
    endloop
  endfacet
  facet normal 0 0 -1
    outer loop
      vertex -8.83916 2.31499 5.561
      vertex -9.525 0.63466 5.561
      vertex -9.28023 2.10258 5.561
    endloop
  endfacet
  facet normal 0 0 -1
    outer loop
      vertex -9.525 0.63466 5.561
      vertex -9.76977 2.10258 5.561
      vertex -9.28023 2.10258 5.561
    endloop
  endfacet
  facet normal 0 0 -1
    outer loop
      vertex -9.525 0.63466 5.561
      vertex -10.2108 2.31499 5.561
      vertex -9.76977 2.10258 5.561
    endloop
  endfacet
  facet normal 0 0 -1
    outer loop
      vertex -11.725 1.90483 5.561
      vertex -10.2108 2.31499 5.561
      vertex -9.525 0.63466 5.561
    endloop
  endfacet
  facet normal -0 0 -1
    outer loop
      vertex -10.5161 2.69773 5.561
      vertex -11.725 1.90483 5.561
      vertex -10.625 3.175 5.561
    endloop
  endfacet
  facet normal -0 0 -1
    outer loop
      vertex -10.2108 2.31499 5.561
      vertex -11.725 1.90483 5.561
      vertex -10.5161 2.69773 5.561
    endloop
  endfacet
  facet normal 0 0 -1
    outer loop
      vertex -8.53393 3.65227 5.561
      vertex -7.325 4.44517 5.561
      vertex -8.425 3.175 5.561
    endloop
  endfacet
  facet normal 0 0 -1
    outer loop
      vertex -8.83916 4.03501 5.561
      vertex -7.325 4.44517 5.561
      vertex -8.53393 3.65227 5.561
    endloop
  endfacet
  facet normal 0 0 -1
    outer loop
      vertex -9.525 5.71534 5.561
      vertex -8.83916 4.03501 5.561
      vertex -9.28023 4.24742 5.561
    endloop
  endfacet
  facet normal 0 0 -1
    outer loop
      vertex -8.83916 4.03501 5.561
      vertex -9.525 5.71534 5.561
      vertex -7.325 4.44517 5.561
    endloop
  endfacet
  facet normal 0 0 -1
    outer loop
      vertex -9.76977 4.24742 5.561
      vertex -9.525 5.71534 5.561
      vertex -9.28023 4.24742 5.561
    endloop
  endfacet
  facet normal 0 0 -1
    outer loop
      vertex -10.2108 4.03501 5.561
      vertex -9.525 5.71534 5.561
      vertex -9.76977 4.24742 5.561
    endloop
  endfacet
  facet normal 0 0 -1
    outer loop
      vertex -11.725 4.44517 5.561
      vertex -10.2108 4.03501 5.561
      vertex -10.5161 3.65227 5.561
    endloop
  endfacet
  facet normal 0 0 -1
    outer loop
      vertex -11.725 4.44517 5.561
      vertex -10.625 3.175 5.561
      vertex -11.725 1.90483 5.561
    endloop
  endfacet
  facet normal 0 0 -1
    outer loop
      vertex -10.625 3.175 5.561
      vertex -11.725 4.44517 5.561
      vertex -10.5161 3.65227 5.561
    endloop
  endfacet
  facet normal 0 0 -1
    outer loop
      vertex -10.2108 4.03501 5.561
      vertex -11.725 4.44517 5.561
      vertex -9.525 5.71534 5.561
    endloop
  endfacet
  facet normal 0 0 1
    outer loop
      vertex -9.525 5.71534 3.9
      vertex -7.325 1.90483 3.9
      vertex -7.325 4.44517 3.9
    endloop
  endfacet
  facet normal 0 0 1
    outer loop
      vertex -9.525 5.71534 3.9
      vertex -9.525 0.63466 3.9
      vertex -7.325 1.90483 3.9
    endloop
  endfacet
  facet normal -0 0 1
    outer loop
      vertex -11.725 4.44517 3.9
      vertex -9.525 0.63466 3.9
      vertex -9.525 5.71534 3.9
    endloop
  endfacet
  facet normal 0 0 1
    outer loop
      vertex -9.525 0.63466 3.9
      vertex -11.725 4.44517 3.9
      vertex -11.725 1.90483 3.9
    endloop
  endfacet
  facet normal -0.5 0.866025 0
    outer loop
      vertex -7.325 1.90483 3.9
      vertex -9.525 0.63466 5.561
      vertex -7.325 1.90483 5.561
    endloop
  endfacet
  facet normal -0.5 0.866025 0
    outer loop
      vertex -9.525 0.63466 5.561
      vertex -7.325 1.90483 3.9
      vertex -9.525 0.63466 3.9
    endloop
  endfacet
  facet normal 0.5 0.866025 -0
    outer loop
      vertex -9.525 0.63466 3.9
      vertex -11.725 1.90483 5.561
      vertex -9.525 0.63466 5.561
    endloop
  endfacet
  facet normal 0.5 0.866025 0
    outer loop
      vertex -11.725 1.90483 5.561
      vertex -9.525 0.63466 3.9
      vertex -11.725 1.90483 3.9
    endloop
  endfacet
  facet normal -1 0 0
    outer loop
      vertex -7.325 1.90483 3.9
      vertex -7.325 4.44517 5.561
      vertex -7.325 4.44517 3.9
    endloop
  endfacet
  facet normal -1 -0 0
    outer loop
      vertex -7.325 4.44517 5.561
      vertex -7.325 1.90483 3.9
      vertex -7.325 1.90483 5.561
    endloop
  endfacet
  facet normal -0.974928 -0.222521 0
    outer loop
      vertex -8.425 3.175 5.561
      vertex -8.53393 3.65227 6.561
      vertex -8.53393 3.65227 5.561
    endloop
  endfacet
  facet normal -0.974928 -0.222521 0
    outer loop
      vertex -8.53393 3.65227 6.561
      vertex -8.425 3.175 5.561
      vertex -8.425 3.175 6.561
    endloop
  endfacet
  facet normal 0.974928 -0.222521 0
    outer loop
      vertex -10.625 3.175 6.561
      vertex -10.5161 3.65227 5.561
      vertex -10.5161 3.65227 6.561
    endloop
  endfacet
  facet normal 0.974928 -0.222521 0
    outer loop
      vertex -10.5161 3.65227 5.561
      vertex -10.625 3.175 6.561
      vertex -10.625 3.175 5.561
    endloop
  endfacet
  facet normal 0.974928 0.222521 0
    outer loop
      vertex -10.5161 2.69773 6.561
      vertex -10.625 3.175 5.561
      vertex -10.625 3.175 6.561
    endloop
  endfacet
  facet normal 0.974928 0.222521 0
    outer loop
      vertex -10.625 3.175 5.561
      vertex -10.5161 2.69773 6.561
      vertex -10.5161 2.69773 5.561
    endloop
  endfacet
  facet normal 0 -1 0
    outer loop
      vertex -9.76977 4.24742 5.561
      vertex -9.28023 4.24742 6.561
      vertex -9.76977 4.24742 6.561
    endloop
  endfacet
  facet normal 0 -1 -0
    outer loop
      vertex -9.28023 4.24742 6.561
      vertex -9.76977 4.24742 5.561
      vertex -9.28023 4.24742 5.561
    endloop
  endfacet
  facet normal 0.433884 -0.900969 0
    outer loop
      vertex -10.2108 4.03501 5.561
      vertex -9.76977 4.24742 6.561
      vertex -10.2108 4.03501 6.561
    endloop
  endfacet
  facet normal 0.433884 -0.900969 0
    outer loop
      vertex -9.76977 4.24742 6.561
      vertex -10.2108 4.03501 5.561
      vertex -9.76977 4.24742 5.561
    endloop
  endfacet
  facet normal -0.433884 -0.900969 0
    outer loop
      vertex -9.28023 4.24742 5.561
      vertex -8.83916 4.03501 6.561
      vertex -9.28023 4.24742 6.561
    endloop
  endfacet
  facet normal -0.433884 -0.900969 -0
    outer loop
      vertex -8.83916 4.03501 6.561
      vertex -9.28023 4.24742 5.561
      vertex -8.83916 4.03501 5.561
    endloop
  endfacet
  facet normal -0.781832 -0.623489 0
    outer loop
      vertex -8.53393 3.65227 5.561
      vertex -8.83916 4.03501 6.561
      vertex -8.83916 4.03501 5.561
    endloop
  endfacet
  facet normal -0.781832 -0.623489 0
    outer loop
      vertex -8.83916 4.03501 6.561
      vertex -8.53393 3.65227 5.561
      vertex -8.53393 3.65227 6.561
    endloop
  endfacet
  facet normal 0.781832 -0.623489 0
    outer loop
      vertex -10.5161 3.65227 6.561
      vertex -10.2108 4.03501 5.561
      vertex -10.2108 4.03501 6.561
    endloop
  endfacet
  facet normal 0.781832 -0.623489 0
    outer loop
      vertex -10.2108 4.03501 5.561
      vertex -10.5161 3.65227 6.561
      vertex -10.5161 3.65227 5.561
    endloop
  endfacet
  facet normal -0.433884 0.900969 0
    outer loop
      vertex -8.83916 2.31499 5.561
      vertex -9.28023 2.10258 6.561
      vertex -8.83916 2.31499 6.561
    endloop
  endfacet
  facet normal -0.433884 0.900969 0
    outer loop
      vertex -9.28023 2.10258 6.561
      vertex -8.83916 2.31499 5.561
      vertex -9.28023 2.10258 5.561
    endloop
  endfacet
  facet normal -0.781832 0.62349 0
    outer loop
      vertex -8.83916 2.31499 5.561
      vertex -8.53393 2.69773 6.561
      vertex -8.53393 2.69773 5.561
    endloop
  endfacet
  facet normal -0.781832 0.62349 0
    outer loop
      vertex -8.53393 2.69773 6.561
      vertex -8.83916 2.31499 5.561
      vertex -8.83916 2.31499 6.561
    endloop
  endfacet
  facet normal -0.974928 0.222521 0
    outer loop
      vertex -8.53393 2.69773 5.561
      vertex -8.425 3.175 6.561
      vertex -8.425 3.175 5.561
    endloop
  endfacet
  facet normal -0.974928 0.222521 0
    outer loop
      vertex -8.425 3.175 6.561
      vertex -8.53393 2.69773 5.561
      vertex -8.53393 2.69773 6.561
    endloop
  endfacet
  facet normal 0.433884 0.900969 -0
    outer loop
      vertex -9.76977 2.10258 5.561
      vertex -10.2108 2.31499 6.561
      vertex -9.76977 2.10258 6.561
    endloop
  endfacet
  facet normal 0.433884 0.900969 0
    outer loop
      vertex -10.2108 2.31499 6.561
      vertex -9.76977 2.10258 5.561
      vertex -10.2108 2.31499 5.561
    endloop
  endfacet
  facet normal 0.781832 0.62349 0
    outer loop
      vertex -10.2108 2.31499 6.561
      vertex -10.5161 2.69773 5.561
      vertex -10.5161 2.69773 6.561
    endloop
  endfacet
  facet normal 0.781832 0.62349 0
    outer loop
      vertex -10.5161 2.69773 5.561
      vertex -10.2108 2.31499 6.561
      vertex -10.2108 2.31499 5.561
    endloop
  endfacet
  facet normal 0 1 -0
    outer loop
      vertex -9.28023 2.10258 5.561
      vertex -9.76977 2.10258 6.561
      vertex -9.28023 2.10258 6.561
    endloop
  endfacet
  facet normal 0 1 0
    outer loop
      vertex -9.76977 2.10258 6.561
      vertex -9.28023 2.10258 5.561
      vertex -9.76977 2.10258 5.561
    endloop
  endfacet
  facet normal -1 0 0
    outer loop
      vertex -12.3344 0.365599 2.5
      vertex -12.3344 5.9844 6.561
      vertex -12.3344 5.9844 2.5
    endloop
  endfacet
  facet normal -1 -0 0
    outer loop
      vertex -12.3344 5.9844 6.561
      vertex -12.3344 0.365599 2.5
      vertex -12.3344 0.365599 6.561
    endloop
  endfacet
  facet normal 0 0 1
    outer loop
      vertex -6.7156 5.9844 6.561
      vertex -8.425 3.175 6.561
      vertex -6.7156 0.365599 6.561
    endloop
  endfacet
  facet normal 0 0 1
    outer loop
      vertex -6.7156 5.9844 6.561
      vertex -8.53393 3.65227 6.561
      vertex -8.425 3.175 6.561
    endloop
  endfacet
  facet normal 0 0 1
    outer loop
      vertex -6.7156 5.9844 6.561
      vertex -8.83916 4.03501 6.561
      vertex -8.53393 3.65227 6.561
    endloop
  endfacet
  facet normal 0 0 1
    outer loop
      vertex -6.7156 5.9844 6.561
      vertex -9.28023 4.24742 6.561
      vertex -8.83916 4.03501 6.561
    endloop
  endfacet
  facet normal 0 0 1
    outer loop
      vertex -6.7156 5.9844 6.561
      vertex -9.76977 4.24742 6.561
      vertex -9.28023 4.24742 6.561
    endloop
  endfacet
  facet normal -0 0 1
    outer loop
      vertex -12.3344 5.9844 6.561
      vertex -9.76977 4.24742 6.561
      vertex -6.7156 5.9844 6.561
    endloop
  endfacet
  facet normal 0 0 1
    outer loop
      vertex -10.5161 3.65227 6.561
      vertex -12.3344 5.9844 6.561
      vertex -10.625 3.175 6.561
    endloop
  endfacet
  facet normal 0 0 1
    outer loop
      vertex -10.2108 4.03501 6.561
      vertex -12.3344 5.9844 6.561
      vertex -10.5161 3.65227 6.561
    endloop
  endfacet
  facet normal 0 0 1
    outer loop
      vertex -9.76977 4.24742 6.561
      vertex -12.3344 5.9844 6.561
      vertex -10.2108 4.03501 6.561
    endloop
  endfacet
  facet normal -0 0 1
    outer loop
      vertex -8.53393 2.69773 6.561
      vertex -6.7156 0.365599 6.561
      vertex -8.425 3.175 6.561
    endloop
  endfacet
  facet normal -0 0 1
    outer loop
      vertex -8.83916 2.31499 6.561
      vertex -6.7156 0.365599 6.561
      vertex -8.53393 2.69773 6.561
    endloop
  endfacet
  facet normal -0 0 1
    outer loop
      vertex -9.28023 2.10258 6.561
      vertex -6.7156 0.365599 6.561
      vertex -8.83916 2.31499 6.561
    endloop
  endfacet
  facet normal -0 0 1
    outer loop
      vertex -9.76977 2.10258 6.561
      vertex -6.7156 0.365599 6.561
      vertex -9.28023 2.10258 6.561
    endloop
  endfacet
  facet normal 0 0 1
    outer loop
      vertex -12.3344 0.365599 6.561
      vertex -9.76977 2.10258 6.561
      vertex -10.2108 2.31499 6.561
    endloop
  endfacet
  facet normal 0 0 1
    outer loop
      vertex -12.3344 0.365599 6.561
      vertex -10.625 3.175 6.561
      vertex -12.3344 5.9844 6.561
    endloop
  endfacet
  facet normal 0 0 1
    outer loop
      vertex -9.76977 2.10258 6.561
      vertex -12.3344 0.365599 6.561
      vertex -6.7156 0.365599 6.561
    endloop
  endfacet
  facet normal 0 0 1
    outer loop
      vertex -10.5161 2.69773 6.561
      vertex -12.3344 0.365599 6.561
      vertex -10.2108 2.31499 6.561
    endloop
  endfacet
  facet normal 0 0 1
    outer loop
      vertex -10.625 3.175 6.561
      vertex -12.3344 0.365599 6.561
      vertex -10.5161 2.69773 6.561
    endloop
  endfacet
  facet normal 1 -0 0
    outer loop
      vertex -6.7156 0.365599 6.561
      vertex -6.7156 5.9844 2.5
      vertex -6.7156 5.9844 6.561
    endloop
  endfacet
  facet normal 1 0 0
    outer loop
      vertex -6.7156 5.9844 2.5
      vertex -6.7156 0.365599 6.561
      vertex -6.7156 0.365599 2.5
    endloop
  endfacet
  facet normal 0 1 -0
    outer loop
      vertex -6.7156 5.9844 2.5
      vertex -12.3344 5.9844 6.561
      vertex -6.7156 5.9844 6.561
    endloop
  endfacet
  facet normal 0 1 0
    outer loop
      vertex -12.3344 5.9844 6.561
      vertex -6.7156 5.9844 2.5
      vertex -12.3344 5.9844 2.5
    endloop
  endfacet
  facet normal 0 -1 0
    outer loop
      vertex -12.3344 0.365599 2.5
      vertex -6.7156 0.365599 6.561
      vertex -12.3344 0.365599 6.561
    endloop
  endfacet
  facet normal 0 -1 -0
    outer loop
      vertex -6.7156 0.365599 6.561
      vertex -12.3344 0.365599 2.5
      vertex -6.7156 0.365599 2.5
    endloop
  endfacet
  facet normal -0.5 -0.866025 0
    outer loop
      vertex 9.525 -2.79366 3.9
      vertex 11.725 -4.06383 5.561
      vertex 9.525 -2.79366 5.561
    endloop
  endfacet
  facet normal -0.5 -0.866025 -0
    outer loop
      vertex 11.725 -4.06383 5.561
      vertex 9.525 -2.79366 3.9
      vertex 11.725 -4.06383 3.9
    endloop
  endfacet
  facet normal 1 -0 0
    outer loop
      vertex 7.325 -6.60417 5.561
      vertex 7.325 -4.06383 3.9
      vertex 7.325 -4.06383 5.561
    endloop
  endfacet
  facet normal 1 0 0
    outer loop
      vertex 7.325 -4.06383 3.9
      vertex 7.325 -6.60417 5.561
      vertex 7.325 -6.60417 3.9
    endloop
  endfacet
  facet normal 0.5 -0.866025 0
    outer loop
      vertex 7.325 -4.06383 3.9
      vertex 9.525 -2.79366 5.561
      vertex 7.325 -4.06383 5.561
    endloop
  endfacet
  facet normal 0.5 -0.866025 0
    outer loop
      vertex 9.525 -2.79366 5.561
      vertex 7.325 -4.06383 3.9
      vertex 9.525 -2.79366 3.9
    endloop
  endfacet
  facet normal 0 0 -1
    outer loop
      vertex 11.725 -6.60417 5.561
      vertex 10.625 -5.334 5.561
      vertex 11.725 -4.06383 5.561
    endloop
  endfacet
  facet normal 0 0 -1
    outer loop
      vertex 11.725 -6.60417 5.561
      vertex 10.5161 -5.81127 5.561
      vertex 10.625 -5.334 5.561
    endloop
  endfacet
  facet normal 0 0 -1
    outer loop
      vertex 11.725 -6.60417 5.561
      vertex 10.2108 -6.19401 5.561
      vertex 10.5161 -5.81127 5.561
    endloop
  endfacet
  facet normal 0 0 -1
    outer loop
      vertex 9.525 -7.87434 5.561
      vertex 10.2108 -6.19401 5.561
      vertex 11.725 -6.60417 5.561
    endloop
  endfacet
  facet normal 0 0 -1
    outer loop
      vertex 10.2108 -6.19401 5.561
      vertex 9.525 -7.87434 5.561
      vertex 9.76977 -6.40642 5.561
    endloop
  endfacet
  facet normal 0 0 -1
    outer loop
      vertex 9.525 -7.87434 5.561
      vertex 9.28023 -6.40642 5.561
      vertex 9.76977 -6.40642 5.561
    endloop
  endfacet
  facet normal 0 0 -1
    outer loop
      vertex 9.525 -7.87434 5.561
      vertex 8.83916 -6.19401 5.561
      vertex 9.28023 -6.40642 5.561
    endloop
  endfacet
  facet normal 0 0 -1
    outer loop
      vertex 7.325 -6.60417 5.561
      vertex 8.83916 -6.19401 5.561
      vertex 9.525 -7.87434 5.561
    endloop
  endfacet
  facet normal -0 0 -1
    outer loop
      vertex 8.53393 -5.81127 5.561
      vertex 7.325 -6.60417 5.561
      vertex 8.425 -5.334 5.561
    endloop
  endfacet
  facet normal -0 0 -1
    outer loop
      vertex 8.83916 -6.19401 5.561
      vertex 7.325 -6.60417 5.561
      vertex 8.53393 -5.81127 5.561
    endloop
  endfacet
  facet normal 0 0 -1
    outer loop
      vertex 10.5161 -4.85673 5.561
      vertex 11.725 -4.06383 5.561
      vertex 10.625 -5.334 5.561
    endloop
  endfacet
  facet normal 0 0 -1
    outer loop
      vertex 10.2108 -4.47399 5.561
      vertex 11.725 -4.06383 5.561
      vertex 10.5161 -4.85673 5.561
    endloop
  endfacet
  facet normal 0 0 -1
    outer loop
      vertex 9.525 -2.79366 5.561
      vertex 10.2108 -4.47399 5.561
      vertex 9.76977 -4.26158 5.561
    endloop
  endfacet
  facet normal 0 0 -1
    outer loop
      vertex 10.2108 -4.47399 5.561
      vertex 9.525 -2.79366 5.561
      vertex 11.725 -4.06383 5.561
    endloop
  endfacet
  facet normal 0 0 -1
    outer loop
      vertex 9.28023 -4.26158 5.561
      vertex 9.525 -2.79366 5.561
      vertex 9.76977 -4.26158 5.561
    endloop
  endfacet
  facet normal 0 0 -1
    outer loop
      vertex 8.83916 -4.47399 5.561
      vertex 9.525 -2.79366 5.561
      vertex 9.28023 -4.26158 5.561
    endloop
  endfacet
  facet normal 0 0 -1
    outer loop
      vertex 7.325 -4.06383 5.561
      vertex 8.83916 -4.47399 5.561
      vertex 8.53393 -4.85673 5.561
    endloop
  endfacet
  facet normal 0 0 -1
    outer loop
      vertex 7.325 -4.06383 5.561
      vertex 8.425 -5.334 5.561
      vertex 7.325 -6.60417 5.561
    endloop
  endfacet
  facet normal 0 0 -1
    outer loop
      vertex 8.425 -5.334 5.561
      vertex 7.325 -4.06383 5.561
      vertex 8.53393 -4.85673 5.561
    endloop
  endfacet
  facet normal 0 0 -1
    outer loop
      vertex 8.83916 -4.47399 5.561
      vertex 7.325 -4.06383 5.561
      vertex 9.525 -2.79366 5.561
    endloop
  endfacet
  facet normal 0 0 1
    outer loop
      vertex 9.525 -2.79366 3.9
      vertex 11.725 -6.60417 3.9
      vertex 11.725 -4.06383 3.9
    endloop
  endfacet
  facet normal 0 0 1
    outer loop
      vertex 9.525 -2.79366 3.9
      vertex 9.525 -7.87434 3.9
      vertex 11.725 -6.60417 3.9
    endloop
  endfacet
  facet normal -0 0 1
    outer loop
      vertex 7.325 -4.06383 3.9
      vertex 9.525 -7.87434 3.9
      vertex 9.525 -2.79366 3.9
    endloop
  endfacet
  facet normal 0 0 1
    outer loop
      vertex 9.525 -7.87434 3.9
      vertex 7.325 -4.06383 3.9
      vertex 7.325 -6.60417 3.9
    endloop
  endfacet
  facet normal -0.5 0.866025 0
    outer loop
      vertex 11.725 -6.60417 3.9
      vertex 9.525 -7.87434 5.561
      vertex 11.725 -6.60417 5.561
    endloop
  endfacet
  facet normal -0.5 0.866025 0
    outer loop
      vertex 9.525 -7.87434 5.561
      vertex 11.725 -6.60417 3.9
      vertex 9.525 -7.87434 3.9
    endloop
  endfacet
  facet normal 0.5 0.866025 -0
    outer loop
      vertex 9.525 -7.87434 3.9
      vertex 7.325 -6.60417 5.561
      vertex 9.525 -7.87434 5.561
    endloop
  endfacet
  facet normal 0.5 0.866025 0
    outer loop
      vertex 7.325 -6.60417 5.561
      vertex 9.525 -7.87434 3.9
      vertex 7.325 -6.60417 3.9
    endloop
  endfacet
  facet normal -1 0 0
    outer loop
      vertex 11.725 -6.60417 3.9
      vertex 11.725 -4.06383 5.561
      vertex 11.725 -4.06383 3.9
    endloop
  endfacet
  facet normal -1 -0 0
    outer loop
      vertex 11.725 -4.06383 5.561
      vertex 11.725 -6.60417 3.9
      vertex 11.725 -6.60417 5.561
    endloop
  endfacet
  facet normal -0.974928 -0.222521 0
    outer loop
      vertex 10.625 -5.334 5.561
      vertex 10.5161 -4.85673 6.561
      vertex 10.5161 -4.85673 5.561
    endloop
  endfacet
  facet normal -0.974928 -0.222521 0
    outer loop
      vertex 10.5161 -4.85673 6.561
      vertex 10.625 -5.334 5.561
      vertex 10.625 -5.334 6.561
    endloop
  endfacet
  facet normal 0.974928 -0.222521 0
    outer loop
      vertex 8.425 -5.334 6.561
      vertex 8.53393 -4.85673 5.561
      vertex 8.53393 -4.85673 6.561
    endloop
  endfacet
  facet normal 0.974928 -0.222521 0
    outer loop
      vertex 8.53393 -4.85673 5.561
      vertex 8.425 -5.334 6.561
      vertex 8.425 -5.334 5.561
    endloop
  endfacet
  facet normal 0.974928 0.222521 0
    outer loop
      vertex 8.53393 -5.81127 6.561
      vertex 8.425 -5.334 5.561
      vertex 8.425 -5.334 6.561
    endloop
  endfacet
  facet normal 0.974928 0.222521 0
    outer loop
      vertex 8.425 -5.334 5.561
      vertex 8.53393 -5.81127 6.561
      vertex 8.53393 -5.81127 5.561
    endloop
  endfacet
  facet normal 0 -1 0
    outer loop
      vertex 9.28023 -4.26158 5.561
      vertex 9.76977 -4.26158 6.561
      vertex 9.28023 -4.26158 6.561
    endloop
  endfacet
  facet normal 0 -1 -0
    outer loop
      vertex 9.76977 -4.26158 6.561
      vertex 9.28023 -4.26158 5.561
      vertex 9.76977 -4.26158 5.561
    endloop
  endfacet
  facet normal 0.433884 -0.900969 0
    outer loop
      vertex 8.83916 -4.47399 5.561
      vertex 9.28023 -4.26158 6.561
      vertex 8.83916 -4.47399 6.561
    endloop
  endfacet
  facet normal 0.433884 -0.900969 0
    outer loop
      vertex 9.28023 -4.26158 6.561
      vertex 8.83916 -4.47399 5.561
      vertex 9.28023 -4.26158 5.561
    endloop
  endfacet
  facet normal -0.433884 -0.900969 0
    outer loop
      vertex 9.76977 -4.26158 5.561
      vertex 10.2108 -4.47399 6.561
      vertex 9.76977 -4.26158 6.561
    endloop
  endfacet
  facet normal -0.433884 -0.900969 -0
    outer loop
      vertex 10.2108 -4.47399 6.561
      vertex 9.76977 -4.26158 5.561
      vertex 10.2108 -4.47399 5.561
    endloop
  endfacet
  facet normal -0.781832 -0.62349 0
    outer loop
      vertex 10.5161 -4.85673 5.561
      vertex 10.2108 -4.47399 6.561
      vertex 10.2108 -4.47399 5.561
    endloop
  endfacet
  facet normal -0.781832 -0.62349 0
    outer loop
      vertex 10.2108 -4.47399 6.561
      vertex 10.5161 -4.85673 5.561
      vertex 10.5161 -4.85673 6.561
    endloop
  endfacet
  facet normal 0.781832 -0.62349 0
    outer loop
      vertex 8.53393 -4.85673 6.561
      vertex 8.83916 -4.47399 5.561
      vertex 8.83916 -4.47399 6.561
    endloop
  endfacet
  facet normal 0.781832 -0.62349 0
    outer loop
      vertex 8.83916 -4.47399 5.561
      vertex 8.53393 -4.85673 6.561
      vertex 8.53393 -4.85673 5.561
    endloop
  endfacet
  facet normal -0.433884 0.900969 0
    outer loop
      vertex 10.2108 -6.19401 5.561
      vertex 9.76977 -6.40642 6.561
      vertex 10.2108 -6.19401 6.561
    endloop
  endfacet
  facet normal -0.433884 0.900969 0
    outer loop
      vertex 9.76977 -6.40642 6.561
      vertex 10.2108 -6.19401 5.561
      vertex 9.76977 -6.40642 5.561
    endloop
  endfacet
  facet normal -0.781832 0.62349 0
    outer loop
      vertex 10.2108 -6.19401 5.561
      vertex 10.5161 -5.81127 6.561
      vertex 10.5161 -5.81127 5.561
    endloop
  endfacet
  facet normal -0.781832 0.62349 0
    outer loop
      vertex 10.5161 -5.81127 6.561
      vertex 10.2108 -6.19401 5.561
      vertex 10.2108 -6.19401 6.561
    endloop
  endfacet
  facet normal -0.974928 0.222521 0
    outer loop
      vertex 10.5161 -5.81127 5.561
      vertex 10.625 -5.334 6.561
      vertex 10.625 -5.334 5.561
    endloop
  endfacet
  facet normal -0.974928 0.222521 0
    outer loop
      vertex 10.625 -5.334 6.561
      vertex 10.5161 -5.81127 5.561
      vertex 10.5161 -5.81127 6.561
    endloop
  endfacet
  facet normal 0.433884 0.900969 -0
    outer loop
      vertex 9.28023 -6.40642 5.561
      vertex 8.83916 -6.19401 6.561
      vertex 9.28023 -6.40642 6.561
    endloop
  endfacet
  facet normal 0.433884 0.900969 0
    outer loop
      vertex 8.83916 -6.19401 6.561
      vertex 9.28023 -6.40642 5.561
      vertex 8.83916 -6.19401 5.561
    endloop
  endfacet
  facet normal 0.781832 0.62349 0
    outer loop
      vertex 8.83916 -6.19401 6.561
      vertex 8.53393 -5.81127 5.561
      vertex 8.53393 -5.81127 6.561
    endloop
  endfacet
  facet normal 0.781832 0.62349 0
    outer loop
      vertex 8.53393 -5.81127 5.561
      vertex 8.83916 -6.19401 6.561
      vertex 8.83916 -6.19401 5.561
    endloop
  endfacet
  facet normal 0 1 -0
    outer loop
      vertex 9.76977 -6.40642 5.561
      vertex 9.28023 -6.40642 6.561
      vertex 9.76977 -6.40642 6.561
    endloop
  endfacet
  facet normal 0 1 0
    outer loop
      vertex 9.28023 -6.40642 6.561
      vertex 9.76977 -6.40642 5.561
      vertex 9.28023 -6.40642 5.561
    endloop
  endfacet
  facet normal -1 0 0
    outer loop
      vertex 6.7156 -8.1434 2.5
      vertex 6.7156 -2.5246 6.561
      vertex 6.7156 -2.5246 2.5
    endloop
  endfacet
  facet normal -1 -0 0
    outer loop
      vertex 6.7156 -2.5246 6.561
      vertex 6.7156 -8.1434 2.5
      vertex 6.7156 -8.1434 6.561
    endloop
  endfacet
  facet normal 0 0 1
    outer loop
      vertex 12.3344 -2.5246 6.561
      vertex 10.625 -5.334 6.561
      vertex 12.3344 -8.1434 6.561
    endloop
  endfacet
  facet normal 0 0 1
    outer loop
      vertex 12.3344 -2.5246 6.561
      vertex 10.5161 -4.85673 6.561
      vertex 10.625 -5.334 6.561
    endloop
  endfacet
  facet normal 0 0 1
    outer loop
      vertex 12.3344 -2.5246 6.561
      vertex 10.2108 -4.47399 6.561
      vertex 10.5161 -4.85673 6.561
    endloop
  endfacet
  facet normal 0 0 1
    outer loop
      vertex 12.3344 -2.5246 6.561
      vertex 9.76977 -4.26158 6.561
      vertex 10.2108 -4.47399 6.561
    endloop
  endfacet
  facet normal 0 0 1
    outer loop
      vertex 12.3344 -2.5246 6.561
      vertex 9.28023 -4.26158 6.561
      vertex 9.76977 -4.26158 6.561
    endloop
  endfacet
  facet normal -0 0 1
    outer loop
      vertex 6.7156 -2.5246 6.561
      vertex 9.28023 -4.26158 6.561
      vertex 12.3344 -2.5246 6.561
    endloop
  endfacet
  facet normal 0 0 1
    outer loop
      vertex 8.53393 -4.85673 6.561
      vertex 6.7156 -2.5246 6.561
      vertex 8.425 -5.334 6.561
    endloop
  endfacet
  facet normal 0 0 1
    outer loop
      vertex 8.83916 -4.47399 6.561
      vertex 6.7156 -2.5246 6.561
      vertex 8.53393 -4.85673 6.561
    endloop
  endfacet
  facet normal 0 0 1
    outer loop
      vertex 9.28023 -4.26158 6.561
      vertex 6.7156 -2.5246 6.561
      vertex 8.83916 -4.47399 6.561
    endloop
  endfacet
  facet normal -0 0 1
    outer loop
      vertex 10.5161 -5.81127 6.561
      vertex 12.3344 -8.1434 6.561
      vertex 10.625 -5.334 6.561
    endloop
  endfacet
  facet normal -0 0 1
    outer loop
      vertex 10.2108 -6.19401 6.561
      vertex 12.3344 -8.1434 6.561
      vertex 10.5161 -5.81127 6.561
    endloop
  endfacet
  facet normal -0 0 1
    outer loop
      vertex 9.76977 -6.40642 6.561
      vertex 12.3344 -8.1434 6.561
      vertex 10.2108 -6.19401 6.561
    endloop
  endfacet
  facet normal -0 0 1
    outer loop
      vertex 9.28023 -6.40642 6.561
      vertex 12.3344 -8.1434 6.561
      vertex 9.76977 -6.40642 6.561
    endloop
  endfacet
  facet normal 0 0 1
    outer loop
      vertex 6.7156 -8.1434 6.561
      vertex 9.28023 -6.40642 6.561
      vertex 8.83916 -6.19401 6.561
    endloop
  endfacet
  facet normal 0 0 1
    outer loop
      vertex 6.7156 -8.1434 6.561
      vertex 8.425 -5.334 6.561
      vertex 6.7156 -2.5246 6.561
    endloop
  endfacet
  facet normal 0 0 1
    outer loop
      vertex 9.28023 -6.40642 6.561
      vertex 6.7156 -8.1434 6.561
      vertex 12.3344 -8.1434 6.561
    endloop
  endfacet
  facet normal 0 0 1
    outer loop
      vertex 8.53393 -5.81127 6.561
      vertex 6.7156 -8.1434 6.561
      vertex 8.83916 -6.19401 6.561
    endloop
  endfacet
  facet normal 0 0 1
    outer loop
      vertex 8.425 -5.334 6.561
      vertex 6.7156 -8.1434 6.561
      vertex 8.53393 -5.81127 6.561
    endloop
  endfacet
  facet normal 1 -0 0
    outer loop
      vertex 12.3344 -8.1434 6.561
      vertex 12.3344 -2.5246 2.5
      vertex 12.3344 -2.5246 6.561
    endloop
  endfacet
  facet normal 1 0 0
    outer loop
      vertex 12.3344 -2.5246 2.5
      vertex 12.3344 -8.1434 6.561
      vertex 12.3344 -8.1434 2.5
    endloop
  endfacet
  facet normal 0 1 -0
    outer loop
      vertex 12.3344 -2.5246 2.5
      vertex 6.7156 -2.5246 6.561
      vertex 12.3344 -2.5246 6.561
    endloop
  endfacet
  facet normal 0 1 0
    outer loop
      vertex 6.7156 -2.5246 6.561
      vertex 12.3344 -2.5246 2.5
      vertex 6.7156 -2.5246 2.5
    endloop
  endfacet
  facet normal 0 -1 0
    outer loop
      vertex 6.7156 -8.1434 2.5
      vertex 12.3344 -8.1434 6.561
      vertex 6.7156 -8.1434 6.561
    endloop
  endfacet
  facet normal 0 -1 -0
    outer loop
      vertex 12.3344 -8.1434 6.561
      vertex 6.7156 -8.1434 2.5
      vertex 12.3344 -8.1434 2.5
    endloop
  endfacet
endsolid OpenSCAD_Model
